<svg width="21" height="25" viewBox="0 0 21 25" fill="none" xmlns="http://www.w3.org/2000/svg">
<path d="M2 4.125V21.125C2 21.6886 2.22388 22.2291 2.6224 22.6276C3.02091 23.0261 3.56141 23.25 4.125 23.25H16.875C17.4386 23.25 17.9791 23.0261 18.3776 22.6276C18.7761 22.2291 19 21.6886 19 21.125V8.73838C19 8.45528 18.9434 8.17505 18.8335 7.91413C18.7237 7.65322 18.5628 7.41688 18.3604 7.219L13.6429 2.60562C13.2459 2.21745 12.7127 2.00007 12.1575 2H4.125C3.56141 2 3.02091 2.22388 2.6224 2.6224C2.22388 3.02091 2 3.56141 2 4.125V4.125Z" stroke="#13FFD5" stroke-width="2.66667" stroke-linecap="round" stroke-linejoin="round"/>
<path d="M7.3125 13.6875H13.6875" stroke="#13FFD5" stroke-width="2.66667" stroke-linecap="round" stroke-linejoin="round"/>
<path d="M7.3125 17.9375H10.5" stroke="#13FFD5" stroke-width="2.66667" stroke-linecap="round" stroke-linejoin="round"/>
<path d="M12.625 2V6.25C12.625 6.81359 12.8489 7.35409 13.2474 7.7526C13.6459 8.15112 14.1864 8.375 14.75 8.375H19" stroke="#13FFD5" stroke-width="2.66667" stroke-linejoin="round"/>
</svg>
