<svg width="77" height="95" viewBox="0 0 77 95" fill="none" xmlns="http://www.w3.org/2000/svg">
<path d="M71.8963 12.8675C70.5437 12.869 69.2468 13.4065 68.2901 14.3622C67.3334 15.3179 66.7949 16.6137 66.7926 17.9657V42.353C66.7926 42.6524 66.6736 42.9396 66.4617 43.1514C66.2499 43.3632 65.9625 43.4821 65.6629 43.4821C65.3632 43.4821 65.0759 43.3632 64.864 43.1514C64.6521 42.9396 64.5331 42.6524 64.5331 42.353V5.97953C64.5316 4.39427 63.9009 2.87436 62.7794 1.75341C61.6578 0.632466 60.1371 0.00206341 58.5511 0.000568589C57.749 -0.0105352 56.953 0.141096 56.2112 0.446295C55.4694 0.751493 54.7972 1.20391 54.2354 1.77618C53.15 2.91728 52.5523 4.43621 52.569 6.01058V42.353C52.569 42.6524 52.45 42.9396 52.2381 43.1514C52.0263 43.3632 51.7389 43.4821 51.4393 43.4821C51.1396 43.4821 50.8523 43.3632 50.6404 43.1514C50.4286 42.9396 50.3095 42.6524 50.3095 42.353V6.45378C50.3073 4.74297 49.6263 3.10287 48.416 1.89314C47.2056 0.683413 45.5647 0.00280934 43.853 0.000568589C39.8113 0.000568589 37.3964 3.4897 37.3964 6.86028V42.353C37.3964 42.6524 37.2774 42.9396 37.0655 43.1514C36.8537 43.3632 36.5663 43.4821 36.2667 43.4821C35.9671 43.4821 35.6797 43.3632 35.4678 43.1514C35.256 42.9396 35.1369 42.6524 35.1369 42.353V13.2768C35.1354 11.6915 34.5047 10.1716 33.3832 9.05069C32.2617 7.92974 30.741 7.29933 29.1549 7.29784C25.4098 7.29784 23.1729 10.5301 23.1729 13.6579V57.7774H36.4474C39.0662 57.7768 41.6543 58.3406 44.0353 59.4304C46.4163 60.5202 48.5342 62.1103 50.2446 64.0923C50.4403 64.3189 50.5381 64.6138 50.5164 64.9123C50.4947 65.2109 50.3553 65.4886 50.1288 65.6844C49.9021 65.8801 49.607 65.9779 49.3083 65.9562C49.0096 65.9345 48.7317 65.7951 48.5358 65.5687C47.0372 63.8322 45.1816 62.4391 43.0955 61.4843C41.0094 60.5295 38.7419 60.0354 36.4474 60.0358H22.0431C21.993 60.034 21.943 60.0293 21.8934 60.0217H21.8341C21.7415 60.0018 21.6515 59.9715 21.5658 59.9313L21.5065 59.9003C21.4323 59.8592 21.3623 59.8109 21.2975 59.7563L21.2692 59.7337L15.6685 54.4746C13.6552 52.5686 10.9769 51.5235 8.20409 51.562C5.43127 51.6005 2.78304 52.7195 0.823506 54.6807C0.311598 55.1857 0.0164859 55.87 0.000669989 56.5888C-0.0151459 57.3075 0.249581 58.0041 0.738778 58.5312L21.9527 81.5352C30.4626 90.9638 39.1108 94.803 51.8036 94.803C65.6968 94.803 77 83.3899 77 69.3571V18.2169C77.0112 15.6227 75.2121 12.8675 71.8963 12.8675Z" fill="white"/>
</svg>
