<svg width="61" height="97" viewBox="0 0 61 97" fill="none" xmlns="http://www.w3.org/2000/svg">
<path d="M19.8268 53.4723H30.3955V41.895C30.396 40.7344 30.6339 39.5861 31.0946 38.5207C31.5553 37.4553 32.2292 36.4953 33.0746 35.6997L37.1198 6.93338C37.3069 5.37615 36.8757 3.80766 35.9187 2.56465C34.9617 1.32165 33.5553 0.503225 32.0013 0.285095C30.4473 0.0669653 28.8697 0.466515 27.6071 1.39797C26.3446 2.32942 25.4978 3.71852 25.2485 5.26703L19.6419 43.6961C19.606 43.9479 19.4803 44.1783 19.2881 44.3449C19.0959 44.5116 18.85 44.6034 18.5955 44.6034C18.3411 44.6034 18.0951 44.5116 17.9029 44.3449C17.7107 44.1783 17.5851 43.9479 17.5492 43.6961L11.9293 5.15876C11.82 4.37968 11.5583 3.62975 11.159 2.95178C10.7597 2.27381 10.2308 1.68108 9.60231 1.20744C8.97385 0.73379 8.25822 0.388502 7.49625 0.191287C6.73427 -0.00592727 5.94089 -0.0512026 5.16141 0.0580381C4.38193 0.167279 3.63162 0.4289 2.9533 0.827965C2.27498 1.22703 1.68195 1.75572 1.20806 2.38386C0.734166 3.01199 0.388691 3.72727 0.191375 4.48885C-0.00594173 5.25042 -0.0512245 6.04339 0.0580727 6.82247C1.60903 18.3892 2.78214 26.6417 3.64084 32.6681C5.81271 47.9293 6.17996 50.5278 6.24337 61.3288C7.61847 58.9429 9.59766 56.9608 11.982 55.5817C14.3664 54.2027 17.072 53.4752 19.8268 53.4723Z" fill="white"/>
<path d="M53.9343 66.3621C52.5202 66.3616 51.1284 66.0106 49.8834 65.3405C48.6384 64.6704 47.5791 63.7021 46.8004 62.5224C45.9578 64.7773 44.4466 66.7213 42.4687 68.0946C40.4909 69.4679 38.1406 70.2049 35.7324 70.2071H31.5049C33.437 71.4304 35.0286 73.1216 36.1321 75.1238C37.2356 77.126 37.8151 79.3744 37.817 81.6603V85.3574C37.817 85.6376 37.7057 85.9063 37.5075 86.1044C37.3093 86.3025 37.0405 86.4138 36.7602 86.4138C36.4799 86.4138 36.2111 86.3025 36.0129 86.1044C35.8147 85.9063 35.7033 85.6376 35.7033 85.3574V81.6603C35.6963 78.6247 34.4853 75.7158 32.3357 73.5713C30.1861 71.4268 27.2734 70.2217 24.2363 70.2203C23.956 70.2203 23.6872 70.109 23.489 69.9109C23.2908 69.7128 23.1794 69.4441 23.1794 69.164C23.1794 68.8838 23.2908 68.6152 23.489 68.4171C23.6872 68.219 23.956 68.1077 24.2363 68.1077H35.735C38.0332 68.1087 40.2564 67.2903 42.0049 65.7996C42.8688 65.0639 43.5984 64.1837 44.1609 63.1984C44.955 61.8061 45.3883 60.2374 45.4212 58.6351C45.4212 58.5638 45.4212 58.4925 45.4212 58.4185C45.4185 58.2714 45.4035 58.1248 45.3763 57.9802C45.3763 57.9458 45.3763 57.9115 45.3763 57.8772C45.2498 57.2358 44.9046 56.6581 44.3997 56.2426C43.8948 55.827 43.2614 55.5993 42.6073 55.5982H19.8265C16.2287 55.6037 12.78 57.0349 10.2362 59.5778C7.69244 62.1208 6.26124 65.5681 6.25635 69.164C6.25635 77.2422 9.29749 84.5414 14.817 89.7148C17.5304 92.2377 20.7307 94.1802 24.2218 95.423C27.7129 96.6659 31.4212 97.183 35.1194 96.9427C49.2788 96.0263 60.3732 83.7386 60.3732 68.9923V63.4466C59.5708 64.3643 58.5808 65.0993 57.4701 65.6023C56.3593 66.1052 55.1537 66.3643 53.9343 66.3621Z" fill="white"/>
<path d="M53.9348 42.2278C52.227 42.2299 50.5898 42.9089 49.3822 44.1158C48.1746 45.3228 47.4953 46.9592 47.4932 48.6661V57.7293C47.5268 57.954 47.5445 58.1808 47.546 58.408C47.546 58.4608 47.546 58.5163 47.546 58.5691C47.7342 60.2021 48.5406 61.7012 49.7998 62.7586C51.059 63.816 52.6754 64.3515 54.3172 64.2551C55.959 64.1588 57.5016 63.438 58.6284 62.2407C59.7552 61.0433 60.3806 59.4603 60.3763 57.8165V48.6634C60.3742 46.9568 59.6948 45.3207 58.4872 44.1141C57.2795 42.9076 55.6423 42.2292 53.9348 42.2278Z" fill="white"/>
<path d="M36.8582 35.8106C36.7631 35.8423 36.675 35.8766 36.594 35.9136C36.5015 35.9505 36.4091 35.9875 36.3298 36.0298C36.2505 36.072 36.1396 36.1169 36.0471 36.1645L35.804 36.2939C35.7036 36.3493 35.6059 36.41 35.5107 36.4734C35.4156 36.5368 35.3733 36.5579 35.3046 36.6055C35.2359 36.653 35.1012 36.7534 35.0034 36.8326C34.9453 36.8775 34.8872 36.9197 34.8317 36.9673C34.1095 37.5697 33.5284 38.3233 33.1294 39.1747C32.7304 40.0262 32.5232 40.9548 32.5225 41.895V53.4723H42.634C43.622 53.4706 44.5874 53.768 45.403 54.3253V41.895C45.4011 40.3026 44.8093 38.7674 43.7418 37.5853C42.6742 36.4033 41.2066 35.6581 39.622 35.4937C39.4035 35.4703 39.1838 35.4588 38.9641 35.4594C38.7593 35.4592 38.5547 35.4698 38.3511 35.491C38.2692 35.491 38.1872 35.5122 38.108 35.5227C38.0287 35.5333 37.8702 35.5544 37.7539 35.5782C37.6377 35.602 37.5611 35.6204 37.4659 35.6416C37.3708 35.6627 37.2704 35.6891 37.1727 35.7182L36.8582 35.8106Z" fill="white"/>
</svg>
