<svg width="72" height="78" viewBox="0 0 72 78" fill="none" xmlns="http://www.w3.org/2000/svg">
<path d="M54.6113 24.1993V8.05028C54.6113 5.91761 53.7636 3.87229 52.2548 2.36426C50.746 0.85624 48.6997 0.0090332 46.5659 0.0090332C44.4321 0.0090332 42.3857 0.85624 40.8769 2.36426C39.3681 3.87229 38.5205 5.91761 38.5205 8.05028V23.7547H52.7111C53.3702 23.7559 54.0202 23.908 54.6113 24.1993Z" fill="white"/>
<path d="M17.3887 23.7548V7.43944C17.3887 5.65727 16.6803 3.94809 15.4195 2.68791C14.1587 1.42772 12.4486 0.719757 10.6655 0.719757C8.88244 0.719757 7.17238 1.42772 5.91155 2.68791C4.65071 3.94809 3.94238 5.65727 3.94238 7.43944V27.544C6.97416 25.0897 10.758 23.7519 14.6595 23.7548H17.3887Z" fill="white"/>
<path d="M64.5144 40.5479C62.7776 40.5462 61.0718 40.0879 59.5683 39.2189C58.0648 38.35 56.8164 37.101 55.9485 35.5974C54.8306 38.3732 52.9084 40.7519 50.4285 42.4282C47.9485 44.1045 45.0241 45.002 42.0302 45.0055H31.9728C34.3926 46.4799 36.3926 48.5511 37.7808 51.0206C39.169 53.49 39.8988 56.2747 39.9001 59.1072V63.6434C39.9001 63.9642 39.7726 64.2719 39.5457 64.4988C39.3187 64.7256 39.0108 64.8531 38.6898 64.8531C38.3689 64.8531 38.061 64.7256 37.834 64.4988C37.6071 64.2719 37.4796 63.9642 37.4796 63.6434V59.1072C37.4748 55.3687 35.9867 51.7846 33.3419 49.1411C30.697 46.4976 27.1111 45.0103 23.3706 45.0055H23.1558C22.8348 45.0055 22.527 44.8781 22.3 44.6512C22.073 44.4244 21.9455 44.1167 21.9455 43.7959C21.9455 43.475 22.073 43.1674 22.3 42.9405C22.527 42.7136 22.8348 42.5862 23.1558 42.5862H42.0333C45.3676 42.583 48.5646 41.2579 50.9226 38.9016C53.2806 36.5454 54.6072 33.3504 54.6112 30.0178V28.0732C54.6112 27.5696 54.411 27.0865 54.0546 26.7303C53.6983 26.3742 53.215 26.1741 52.711 26.1741H14.6596C12.5319 26.1742 10.4298 26.6377 8.49953 27.5323C6.56927 28.427 4.85725 29.7313 3.4826 31.3545C3.27988 31.5934 3.08018 31.8353 2.89561 32.0863C2.81694 32.1891 2.74433 32.295 2.67171 32.3887C2.48714 32.6488 2.30862 32.9119 2.14221 33.1841C2.08775 33.2718 2.03631 33.3625 1.98487 33.4532C1.81543 33.7557 1.65507 34.0399 1.50378 34.3393L1.43116 34.4875C1.26172 34.8383 1.11044 35.1951 0.971253 35.558C0.953098 35.6064 0.931918 35.6518 0.913763 35.7002C0.777606 36.0661 0.65658 36.4411 0.547654 36.8191C0.547654 36.8675 0.520421 36.9159 0.508318 36.9643C0.402418 37.3453 0.314671 37.7294 0.242054 38.1165L0.214823 38.2677C0.145232 38.6578 0.0907693 39.054 0.0544607 39.4502C0.0544607 39.4955 0.0544607 39.5409 0.0544607 39.5893C0.0211778 40.0005 0 40.4118 0 40.8261C0 41.8241 0.0484109 42.807 0.12708 43.7838C1.63994 62.7906 17.5885 77.7935 36.9864 77.7935H41.3858C49.5009 77.7815 57.2804 74.5543 63.019 68.8192C68.7575 63.0841 71.9872 55.309 72 47.198V37.1155C71.0727 38.1922 69.924 39.0562 68.6321 39.6485C67.3402 40.2409 65.9357 40.5477 64.5144 40.5479Z" fill="white"/>
<path d="M36.1 8.14104C36.1 5.9819 35.2419 3.9112 33.7144 2.38446C32.1868 0.85772 30.115 0 27.9548 0C25.7945 0 23.7228 0.85772 22.1953 2.38446C20.6677 3.9112 19.8096 5.9819 19.8096 8.14104V23.7457H36.1V8.14104Z" fill="white"/>
<path d="M64.5143 11.7972C62.53 11.7996 60.6278 12.5888 59.2249 13.9914C57.8221 15.3941 57.0333 17.2957 57.0317 19.279V30.6498C57.0711 32.6077 57.8769 34.4721 59.2762 35.8428C60.6754 37.2135 62.5566 37.9812 64.5158 37.9812C66.4751 37.9812 68.3562 37.2135 69.7555 35.8428C71.1547 34.4721 71.9605 32.6077 71.9999 30.6498V19.279C71.9975 17.2955 71.2081 15.3938 69.8048 13.9913C68.4015 12.5887 66.4989 11.7996 64.5143 11.7972Z" fill="white"/>
</svg>
